<mxfile host="app.diagrams.net" agent="Mozilla/5.0 (Macintosh; Intel Mac OS X 10_15_7) AppleWebKit/537.36 (KHTML, like Gecko) Chrome/138.0.0.0 Safari/537.36" version="24.8.6">
  <diagram name="Page-1" id="VygusJ6SPI_Gxu89azcJ">
    <mxGraphModel dx="1191" dy="804" grid="1" gridSize="10" guides="1" tooltips="1" connect="1" arrows="1" fold="1" page="1" pageScale="1" pageWidth="850" pageHeight="1100" math="0" shadow="0">
      <root>
        <mxCell id="0" />
        <mxCell id="1" parent="0" />
        <mxCell id="ApvgbccNQGZswSCE0RyP-60" style="edgeStyle=orthogonalEdgeStyle;rounded=0;orthogonalLoop=1;jettySize=auto;html=1;" edge="1" parent="1" source="ApvgbccNQGZswSCE0RyP-5">
          <mxGeometry relative="1" as="geometry">
            <mxPoint x="240" y="449" as="targetPoint" />
          </mxGeometry>
        </mxCell>
        <mxCell id="ApvgbccNQGZswSCE0RyP-5" value="" style="sketch=0;points=[[0,0,0],[0.25,0,0],[0.5,0,0],[0.75,0,0],[1,0,0],[0,1,0],[0.25,1,0],[0.5,1,0],[0.75,1,0],[1,1,0],[0,0.25,0],[0,0.5,0],[0,0.75,0],[1,0.25,0],[1,0.5,0],[1,0.75,0]];outlineConnect=0;fontColor=#232F3E;fillColor=#8C4FFF;strokeColor=#ffffff;dashed=0;verticalLabelPosition=bottom;verticalAlign=top;align=center;html=1;fontSize=12;fontStyle=0;aspect=fixed;shape=mxgraph.aws4.resourceIcon;resIcon=mxgraph.aws4.cloudfront;" vertex="1" parent="1">
          <mxGeometry x="582" y="410" width="78" height="78" as="geometry" />
        </mxCell>
        <mxCell id="ApvgbccNQGZswSCE0RyP-6" value="" style="sketch=0;points=[[0,0,0],[0.25,0,0],[0.5,0,0],[0.75,0,0],[1,0,0],[0,1,0],[0.25,1,0],[0.5,1,0],[0.75,1,0],[1,1,0],[0,0.25,0],[0,0.5,0],[0,0.75,0],[1,0.25,0],[1,0.5,0],[1,0.75,0]];outlineConnect=0;fontColor=#232F3E;fillColor=#7AA116;strokeColor=#ffffff;dashed=0;verticalLabelPosition=bottom;verticalAlign=top;align=center;html=1;fontSize=12;fontStyle=0;aspect=fixed;shape=mxgraph.aws4.resourceIcon;resIcon=mxgraph.aws4.s3;" vertex="1" parent="1">
          <mxGeometry x="140" y="410" width="78" height="78" as="geometry" />
        </mxCell>
        <mxCell id="ApvgbccNQGZswSCE0RyP-62" style="edgeStyle=orthogonalEdgeStyle;rounded=0;orthogonalLoop=1;jettySize=auto;html=1;" edge="1" parent="1" source="ApvgbccNQGZswSCE0RyP-9">
          <mxGeometry relative="1" as="geometry">
            <mxPoint x="180" y="499.9999999999998" as="targetPoint" />
          </mxGeometry>
        </mxCell>
        <mxCell id="ApvgbccNQGZswSCE0RyP-9" value="" style="sketch=0;points=[[0,0,0],[0.25,0,0],[0.5,0,0],[0.75,0,0],[1,0,0],[0,1,0],[0.25,1,0],[0.5,1,0],[0.75,1,0],[1,1,0],[0,0.25,0],[0,0.5,0],[0,0.75,0],[1,0.25,0],[1,0.5,0],[1,0.75,0]];outlineConnect=0;fontColor=#232F3E;fillColor=#C925D1;strokeColor=#ffffff;dashed=0;verticalLabelPosition=bottom;verticalAlign=top;align=center;html=1;fontSize=12;fontStyle=0;aspect=fixed;shape=mxgraph.aws4.resourceIcon;resIcon=mxgraph.aws4.codepipeline;" vertex="1" parent="1">
          <mxGeometry x="347" y="640" width="78" height="78" as="geometry" />
        </mxCell>
        <mxCell id="ApvgbccNQGZswSCE0RyP-16" value="User" style="sketch=0;outlineConnect=0;fontColor=#232F3E;gradientColor=none;strokeColor=#232F3E;fillColor=#ffffff;dashed=0;verticalLabelPosition=bottom;verticalAlign=top;align=center;html=1;fontSize=12;fontStyle=0;aspect=fixed;shape=mxgraph.aws4.resourceIcon;resIcon=mxgraph.aws4.user;" vertex="1" parent="1">
          <mxGeometry x="600" y="100" width="60" height="60" as="geometry" />
        </mxCell>
        <mxCell id="ApvgbccNQGZswSCE0RyP-18" value="https://alexandredequeker.com" style="text;html=1;align=center;verticalAlign=middle;resizable=0;points=[];autosize=1;strokeColor=none;fillColor=none;" vertex="1" parent="1">
          <mxGeometry x="140" y="290" width="190" height="30" as="geometry" />
        </mxCell>
        <mxCell id="ApvgbccNQGZswSCE0RyP-19" value="1. User requests domain" style="text;html=1;align=center;verticalAlign=middle;resizable=0;points=[];autosize=1;strokeColor=none;fillColor=none;" vertex="1" parent="1">
          <mxGeometry x="168" y="220" width="150" height="30" as="geometry" />
        </mxCell>
        <mxCell id="ApvgbccNQGZswSCE0RyP-11" value="" style="sketch=0;points=[[0,0,0],[0.25,0,0],[0.5,0,0],[0.75,0,0],[1,0,0],[0,1,0],[0.25,1,0],[0.5,1,0],[0.75,1,0],[1,1,0],[0,0.25,0],[0,0.5,0],[0,0.75,0],[1,0.25,0],[1,0.5,0],[1,0.75,0]];outlineConnect=0;fontColor=#232F3E;fillColor=#8C4FFF;strokeColor=#ffffff;dashed=0;verticalLabelPosition=bottom;verticalAlign=top;align=center;html=1;fontSize=12;fontStyle=0;aspect=fixed;shape=mxgraph.aws4.resourceIcon;resIcon=mxgraph.aws4.route_53;" vertex="1" parent="1">
          <mxGeometry x="330" y="230" width="78" height="78" as="geometry" />
        </mxCell>
        <mxCell id="ApvgbccNQGZswSCE0RyP-59" style="edgeStyle=orthogonalEdgeStyle;rounded=0;orthogonalLoop=1;jettySize=auto;html=1;exitX=0.604;exitY=0.063;exitDx=0;exitDy=0;exitPerimeter=0;" edge="1" parent="1" source="ApvgbccNQGZswSCE0RyP-25">
          <mxGeometry relative="1" as="geometry">
            <mxPoint x="630" y="190" as="targetPoint" />
            <Array as="points" />
          </mxGeometry>
        </mxCell>
        <mxCell id="ApvgbccNQGZswSCE0RyP-25" value="Cloudfront" style="text;html=1;align=center;verticalAlign=middle;resizable=0;points=[];autosize=1;strokeColor=none;fillColor=none;" vertex="1" parent="1">
          <mxGeometry x="582" y="380" width="80" height="30" as="geometry" />
        </mxCell>
        <mxCell id="ApvgbccNQGZswSCE0RyP-33" value="Route 53" style="text;html=1;align=center;verticalAlign=middle;resizable=0;points=[];autosize=1;strokeColor=none;fillColor=none;" vertex="1" parent="1">
          <mxGeometry x="334" y="200" width="70" height="30" as="geometry" />
        </mxCell>
        <mxCell id="ApvgbccNQGZswSCE0RyP-34" value="S3" style="text;html=1;align=center;verticalAlign=middle;resizable=0;points=[];autosize=1;strokeColor=none;fillColor=none;" vertex="1" parent="1">
          <mxGeometry x="159" y="380" width="40" height="30" as="geometry" />
        </mxCell>
        <mxCell id="ApvgbccNQGZswSCE0RyP-35" value="CodePipeline" style="text;html=1;align=center;verticalAlign=middle;resizable=0;points=[];autosize=1;strokeColor=none;fillColor=none;" vertex="1" parent="1">
          <mxGeometry x="341" y="610" width="90" height="30" as="geometry" />
        </mxCell>
        <mxCell id="ApvgbccNQGZswSCE0RyP-38" value="2. DNS resolves to CloudFront" style="text;html=1;align=center;verticalAlign=middle;resizable=0;points=[];autosize=1;strokeColor=none;fillColor=none;" vertex="1" parent="1">
          <mxGeometry x="420" y="320" width="190" height="30" as="geometry" />
        </mxCell>
        <mxCell id="ApvgbccNQGZswSCE0RyP-43" value="3. Serves cached website (fast)" style="text;html=1;align=center;verticalAlign=middle;resizable=0;points=[];autosize=1;strokeColor=none;fillColor=none;" vertex="1" parent="1">
          <mxGeometry x="640" y="220" width="190" height="30" as="geometry" />
        </mxCell>
        <mxCell id="ApvgbccNQGZswSCE0RyP-45" value="4. (If not cached) Fetches files from S3 origin" style="text;html=1;align=center;verticalAlign=middle;resizable=0;points=[];autosize=1;strokeColor=none;fillColor=none;" vertex="1" parent="1">
          <mxGeometry x="280" y="410" width="260" height="30" as="geometry" />
        </mxCell>
        <mxCell id="ApvgbccNQGZswSCE0RyP-49" style="edgeStyle=orthogonalEdgeStyle;rounded=0;orthogonalLoop=1;jettySize=auto;html=1;entryX=0.276;entryY=-0.111;entryDx=0;entryDy=0;entryPerimeter=0;" edge="1" parent="1" source="ApvgbccNQGZswSCE0RyP-11" target="ApvgbccNQGZswSCE0RyP-25">
          <mxGeometry relative="1" as="geometry" />
        </mxCell>
        <mxCell id="ApvgbccNQGZswSCE0RyP-50" style="edgeStyle=orthogonalEdgeStyle;rounded=0;orthogonalLoop=1;jettySize=auto;html=1;entryX=0.546;entryY=-0.143;entryDx=0;entryDy=0;entryPerimeter=0;" edge="1" parent="1" source="ApvgbccNQGZswSCE0RyP-16" target="ApvgbccNQGZswSCE0RyP-33">
          <mxGeometry relative="1" as="geometry" />
        </mxCell>
        <mxCell id="ApvgbccNQGZswSCE0RyP-51" style="edgeStyle=orthogonalEdgeStyle;rounded=0;orthogonalLoop=1;jettySize=auto;html=1;entryX=0.545;entryY=-0.095;entryDx=0;entryDy=0;entryPerimeter=0;" edge="1" parent="1" source="ApvgbccNQGZswSCE0RyP-19" target="ApvgbccNQGZswSCE0RyP-18">
          <mxGeometry relative="1" as="geometry" />
        </mxCell>
        <mxCell id="ApvgbccNQGZswSCE0RyP-54" style="edgeStyle=orthogonalEdgeStyle;rounded=0;orthogonalLoop=1;jettySize=auto;html=1;" edge="1" parent="1" source="ApvgbccNQGZswSCE0RyP-52">
          <mxGeometry relative="1" as="geometry">
            <mxPoint x="440" y="675" as="targetPoint" />
          </mxGeometry>
        </mxCell>
        <mxCell id="ApvgbccNQGZswSCE0RyP-52" value="" style="verticalLabelPosition=bottom;html=1;verticalAlign=top;align=center;strokeColor=none;fillColor=#00BEF2;shape=mxgraph.azure.github_code;pointerEvents=1;" vertex="1" parent="1">
          <mxGeometry x="710" y="650" width="50" height="50" as="geometry" />
        </mxCell>
        <mxCell id="ApvgbccNQGZswSCE0RyP-53" value="GitHub" style="text;html=1;align=center;verticalAlign=middle;resizable=0;points=[];autosize=1;strokeColor=none;fillColor=none;" vertex="1" parent="1">
          <mxGeometry x="705" y="610" width="60" height="30" as="geometry" />
        </mxCell>
        <mxCell id="ApvgbccNQGZswSCE0RyP-56" value="A. &#39;git push&#39; triggers pipeline" style="text;html=1;align=center;verticalAlign=middle;resizable=0;points=[];autosize=1;strokeColor=none;fillColor=none;" vertex="1" parent="1">
          <mxGeometry x="490" y="640" width="170" height="30" as="geometry" />
        </mxCell>
        <mxCell id="ApvgbccNQGZswSCE0RyP-58" value="B. Deploys updated files to S3" style="text;html=1;align=center;verticalAlign=middle;resizable=0;points=[];autosize=1;strokeColor=none;fillColor=none;" vertex="1" parent="1">
          <mxGeometry x="159" y="680" width="180" height="30" as="geometry" />
        </mxCell>
      </root>
    </mxGraphModel>
  </diagram>
</mxfile>
